<?xml version="1.0" encoding="utf-8"?>
<!-- Generator: Adobe Illustrator 27.7.0, SVG Export Plug-In . SVG Version: 6.00 Build 0)  -->
<svg version="1.1" id="Layer_1" xmlns="http://www.w3.org/2000/svg" xmlns:xlink="http://www.w3.org/1999/xlink" x="0px" y="0px"
	 viewBox="0 0 127 32" style="enable-background:new 0 0 127 32;" xml:space="preserve">
<style type="text/css">
	.st0{fill-rule:evenodd;clip-rule:evenodd;fill:#00C0F3;}
	.st1{fill-rule:evenodd;clip-rule:evenodd;fill:#16AEBD;}
	.st2{fill-rule:evenodd;clip-rule:evenodd;fill:#6DC8BF;}
	.st3{fill-rule:evenodd;clip-rule:evenodd;fill:#B1DED3;}
	.st4{fill:#FFFFFF;}
</style>
<path class="st0" d="M16.1,31.4c-0.5,0-1-0.2-1.4-0.6L1.1,17.3C0.8,17,0.6,16.5,0.6,16l5.9,0.3l0.4,6.4l0.4-6.3l8,0.5l0.5,7.6
	l-5.8,0.3l5.9,0.3L16.1,31.4z"/>
<path class="st1" d="M24.5,23.8L24.5,23.8l-8,0.5l0.5-7.5l8-0.5L24.5,23.8z M31.6,16c0,0.5-0.2,1-0.6,1.3l-4.9,4.9l-0.3-5.9L31.6,16
	z M22.8,25.5l-5.4,5.4c-0.4,0.4-0.9,0.6-1.4,0.6l0.4-6.3L22.8,25.5z"/>
<path class="st2" d="M16.1,0.6c0.5,0,1,0.2,1.4,0.6L31,14.7c0.4,0.4,0.6,0.9,0.6,1.3l-5.8-0.3l-0.4-6.4L25,15.6l-8-0.5l-0.5-7.6
	l5.8-0.3l-5.9-0.3L16.1,0.6z"/>
<path class="st3" d="M9.3,6.5l5.4-5.4c0.4-0.4,0.9-0.6,1.4-0.6l-0.4,6.3L9.3,6.5z M7.7,8.2L7.7,8.2l8-0.5l-0.4,7.5l-8,0.5L7.7,8.2z
	 M1.1,14.7L6,9.8l0.3,5.9L0.6,16C0.6,15.5,0.8,15,1.1,14.7z"/>
<path class="st4" d="M51.5,25.2h-4.8c-1.9,0-3.3-0.1-4.3-0.4c-1-0.3-1.8-0.8-2.5-1.5c-1.5-1.6-2.3-3.8-2.3-6.7c0-3.2,1-5.6,2.9-7.2
	c0.6-0.5,1.3-0.9,2-1.1C43.2,8.1,44.1,8,45.3,8h6.2v3.1h-4.8c-1.2,0-2.2,0.1-2.7,0.3c-0.6,0.2-1.1,0.5-1.5,1c-0.3,0.3-0.4,0.7-0.5,1
	c-0.1,0.3-0.2,0.9-0.2,1.8h9.8v3.1h-9.8c0.1,1.5,0.6,2.5,1.3,3.1c0.7,0.6,2,0.9,3.8,0.9h4.6V25.2z M65.9,21.3c0,0.8-0.2,1.5-0.6,2.2
	c-0.4,0.7-0.9,1.2-1.5,1.4c-0.5,0.2-1.5,0.3-2.8,0.3h-7.2v-2.7H60c0.8,0,1.3,0,1.6-0.1c0.6-0.1,0.9-0.4,0.9-1c0-0.6-0.2-0.9-0.7-1.1
	c-0.2-0.1-0.7-0.1-1.4-0.1h-2.1c-1.5,0-2.5-0.3-3.2-0.8c-1-0.7-1.4-1.8-1.4-3.2c0-1.3,0.5-2.3,1.5-3.1c0.5-0.4,1.5-0.6,2.8-0.6h7.4
	v2.7h-6.2c-0.7,0-1.1,0-1.3,0.1c-0.4,0.2-0.6,0.5-0.6,1c0,0.6,0.2,1,0.7,1.1c0.3,0.1,0.8,0.1,1.5,0.1h2c1.4,0,2.5,0.3,3.2,0.9
	C65.5,19.2,65.9,20.1,65.9,21.3z M76.1,25.2h-2.5c-1.5,0-2.6-0.3-3.2-1.1c-0.6-0.7-1-1.9-1-3.7v-5.2h-2.2v-2.7h2.2V8h3.5v4.6h3.2
	v2.7h-3.2v4.6c0,1.1,0.1,1.8,0.3,2.1c0.2,0.3,0.7,0.5,1.5,0.5h1.4V25.2z M84.3,17.6v2.7h-1.6c-0.9,0-1.3,0.4-1.3,1.2
	c0,0.7,0.6,1.1,1.9,1.1h1.1v2.7h-0.9c-1.2,0-1.9,0-2.2,0c-0.9-0.1-1.5-0.3-2-0.7c-1-0.7-1.5-1.7-1.5-3.1c0-0.9,0.2-1.6,0.6-2.3
	c0.4-0.7,1-1.1,1.7-1.3c0.6-0.2,1.5-0.3,2.9-0.3H84.3z M84.3,12.6v2.7h-5.6v-2.7H84.3z M84.3,8.7v2.5h-1.7L84.3,8.7z M104.5,25.2
	h-4.8c-1.3,0-2.3-0.1-3-0.4c-0.8-0.3-1.4-0.7-2-1.3c-1.1-1.2-1.6-2.8-1.6-4.7c0-2.2,0.6-3.8,1.9-4.9c1-0.8,2.5-1.2,4.7-1.2h4.8v2.7
	h-4.1c-1.3,0-2.3,0.3-2.8,0.8c-0.6,0.6-0.9,1.5-0.9,2.7c0,1.3,0.3,2.2,1,2.8c0.6,0.6,1.7,0.9,3.1,0.9h3.8V25.2z M110.7,11.3h-3.5V8
	h3.5V11.3z M110.7,25.2h-3.5V12.6h3.5V25.2z M84.3,11.2V8.7L84.8,8H88l-3.4,3.2H84.3z M84.3,25.2v-2.7h2.9v-2.3h-2.9v-2.7h2.9v-0.2
	c0-0.8-0.2-1.3-0.6-1.6c-0.4-0.3-1.1-0.4-2.1-0.4h-0.3v-2.7h0.3c1.4,0,2.3,0.1,2.7,0.1c0.9,0.2,1.7,0.6,2.3,1.3
	c0.8,0.9,1.1,2.2,1.1,4.1v7.1H84.3z M120,15.1C120,15.1,119.9,15.1,120,15.1c-2.1,0-3.1,1.3-3.1,3.8c0,2.5,1.1,3.8,3.1,3.8v2.7
	c0,0-0.1,0-0.1,0c-2,0-3.6-0.6-4.8-1.7c-1.2-1.2-1.8-2.7-1.8-4.8c0-2,0.6-3.5,1.8-4.7c1.2-1.2,2.8-1.7,4.9-1.7h0V15.1z M123.1,18.9
	c0-2.5-1.1-3.8-3.1-3.8v-2.7c2.1,0,3.7,0.6,4.9,1.7s1.8,2.8,1.8,4.9c0,2-0.6,3.5-1.8,4.6c-1.2,1.1-2.8,1.7-4.9,1.7v-2.7c0,0,0,0,0,0
	C122.1,22.7,123.1,21.5,123.1,18.9z"/>
</svg>
